<svg id="Livello_1" data-name="Livello 1" xmlns="http://www.w3.org/2000/svg" viewBox="0 0 3000.88 3001.8"><defs><style>.cls-1{fill:#9558b2;}.cls-2{fill:#cb3c33;}.cls-3{fill:none;stroke:#9558b2;}.cls-3,.cls-4{stroke-miterlimit:10;}.cls-4{fill:#389826;stroke:#39b54a;}</style></defs><title>DEFINITIVO</title><path class="cls-1" d="M2041.49,1924.81c14.48,5.15,28.61,11.25,42.66,17.5s27.9,13,41.63,19.94c27.5,13.86,54.42,28.88,80.9,44.67,13.25,7.88,26.3,16.08,39.33,24.33,6.47,4.18,13,8.33,19.38,12.64s12.85,8.54,19.2,12.91l9.56,6.52,9.47,6.64c6.33,4.42,12.57,8.95,18.82,13.47s12.45,9.12,18.67,13.7,12.32,9.29,18.47,14q18.35,14.12,36.39,28.66c6.06,4.79,11.94,9.79,17.89,14.71s11.83,9.93,17.71,14.94c23.55,20,46.45,40.75,69,61.91l16.77,16,16.53,16.24c5.54,5.38,10.91,10.94,16.34,16.44l8.13,8.26,8,8.36,8,8.38c2.67,2.79,5.34,5.59,7.95,8.43l15.77,17c5.21,5.71,10.34,11.49,15.51,17.23s10.25,11.56,15.33,17.38c10.21,11.6,20.1,23.47,30.08,35.27l14.66,17.95c2.43,3,4.91,6,7.3,9l7.19,9.09,7.17,9.1c2.39,3,4.79,6.06,7.12,9.14l14.06,18.42c2.35,3.06,4.66,6.16,6.94,9.28l6.88,9.32c4.59,6.21,9.2,12.41,13.62,18.74l13.4,18.89c4.44,6.31,8.77,12.71,13.15,19.06,8.86,12.64,17.19,25.65,25.7,38.51,4.21,6.47,8.31,13,12.46,19.51s8.33,13,12.3,19.6l12,19.77c2,3.28,4,6.61,5.92,9.94l5.86,10,5.86,10,2.92,5,2.83,5,11.3,20.18c3.81,6.7,7.43,13.5,11.09,20.28s7.28,13.58,10.9,20.38l10.55,20.56c3.51,6.85,7.08,13.67,10.39,20.63,6.72,13.86,13.58,27.63,20,41.63l9.66,21,9.3,21.11c6.24,14.05,12.11,28.27,17.94,42.48,1.45,3.56,2.94,7.09,4.37,10.66l4.19,10.74,8.32,21.48c1.39,3.58,2.7,7.19,4,10.8l3.92,10.83q3.91,10.83,7.71,21.7-5.36-10.2-10.62-20.43c-3.55-6.8-6.91-13.68-10.54-20.43l-10.69-20.33-5.31-10.17c-1.78-3.39-3.63-6.74-5.44-10.11-7.32-13.44-14.37-27-21.9-40.3l-11-20.07-11.34-19.9c-15-26.6-30.63-52.78-46.32-78.89l-12-19.43c-4-6.49-7.94-13-12.07-19.39l-12.26-19.26-3.07-4.81-3.12-4.78-6.23-9.56-6.23-9.56c-2.07-3.19-4.14-6.38-6.28-9.52l-12.74-18.92c-4.2-6.33-8.53-12.58-12.84-18.84s-8.59-12.54-13-18.76l-13.21-18.58-3.3-4.64c-1.09-1.55-2.18-3.11-3.31-4.64l-6.7-9.22c-4.48-6.13-8.89-12.32-13.42-18.41l-13.66-18.23c-18.34-24.2-36.88-48.25-56.07-71.77l-7.14-8.86c-2.38-3-4.83-5.85-7.24-8.78l-14.54-17.51c-9.83-11.56-19.58-23.19-29.62-34.56q-29.86-34.35-61-67.52t-63.48-65.25c-21.56-21.36-43.63-42.21-66-62.78-5.6-5.13-11.19-10.27-16.87-15.3s-11.31-10.13-17-15.14q-17.05-15.11-34.47-29.82c-11.63-9.78-23.26-19.57-35.07-29.14-5.9-4.79-11.8-9.59-17.78-14.29l-8.92-7.11-9-7q-36-28.06-73.18-54.65c-6.18-4.46-12.43-8.82-18.67-13.2l-9.41-6.49-9.44-6.46c-12.59-8.61-25.35-17-38.18-25.26s-25.8-16.36-38.92-24.23S2055,1932,2041.49,1924.81Z" transform="translate(0.88 1.8)"/><path class="cls-2" d="M.88-1.8q16,5.66,31.9,11.59l15.88,5.94,15.82,6C75,25.78,85.54,29.93,96.06,34s21,8.28,31.47,12.47l11.39,4.55-4.2,13.17-10.3,32.32L114,128.83,93.2,193.38l-9.81-23.44,65,26.93c10.84,4.47,21.62,9,32.42,13.58l32.39,13.64,17.48,7.36-4.11,20.34-5.14,25.44-5.28,25.4-10.56,50.81-24-34.11c20.65,1.83,41.28,3.8,61.92,5.72l61.91,5.79,61.91,5.79,61.89,6,13.41,1.3,10.06,13.65,7.84,10.64c1.33,1.76,2.58,3.57,3.84,5.37l3.78,5.41,7.56,10.82c2.52,3.6,4.87,7.31,7.32,11,4.84,7.33,9.76,14.62,14.32,22.11l7,11.17,3.49,5.59,3.35,5.67-25.38-16.89,80.46,12.4,80.37,13,27.9,4.51,1.56,27.63c.75,13.19,1.49,26.37,2.15,39.57l2.06,39.57,4.12,79.14-17.44-27.16,13.84,7.71,13.79,7.79,27.57,15.6,27.57,15.6,13.79,7.8,13.74,7.89,11.18,6.42,3.18,10.52,14.33,47.46,3.58,11.86L813,767.6l7,23.79-26.44-18.07,42.56-.34,42.57-.09c14.19,0,28.38-.08,42.57,0l42.58.18,32.88.14-14.82,27.7-46,86.08-23.09,43-23.17,43-5.51-18.15,14.36,9.56L912.78,974l14.31,9.65,14.25,9.75c9.51,6.48,19,13.06,28.43,19.63s18.86,13.25,28.22,20l-2,3.48L876,969.08l-2.17-1.22,1.12-2.25L962,790.94l2.83,4.36-169.92,8-2.54.12-.83-2.43-32-93.77,1.73,2L649.52,649.62l-1.85-1-.13-2.1L637.6,488.34l3.27,3.56-161-24L478,467.6l-1-1.6c-4.59-7.48-9.08-15-13.62-22.54l-13.59-22.56-27.18-45.11,2.77,1.76L178.2,350.37l-3.93-.43.93-3.83L199.8,245.33l1.8,3.72L74.22,189.74l-2.48-1.16.93-2.56,46-127.54,1.34,3.3L-.88,1.8Z" transform="translate(0.88 1.8)"/><path class="cls-3" d="M1527.59,426" transform="translate(0.88 1.8)"/><path class="cls-4" d="M2041.49,1924.81C1188.3,1585.39,489.4,1606.25,489.4,1606.25L1541.32,421.38s80.36,797.87,500.17,1503.43" transform="translate(0.88 1.8)"/></svg>